<?xml version="1.0" standalone="no"?>
<!DOCTYPE svg PUBLIC "-//W3C//DTD SVG 20010904//EN"
 "http://www.w3.org/TR/2001/REC-SVG-20010904/DTD/svg10.dtd">
<svg version="1.0" xmlns="http://www.w3.org/2000/svg"
 width="1080.000000pt" height="1080.000000pt" viewBox="0 0 1080.000000 1080.000000"
 preserveAspectRatio="xMidYMid meet">
<metadata>
Created by potrace 1.16, written by Peter Selinger 2001-2019
</metadata>
<g transform="translate(0.000000,1080.000000) scale(0.100000,-0.100000)"
fill="#000000" stroke="none">
<path d="M3629 7429 c-42 -42 -17 -118 159 -494 116 -249 152 -371 152 -521 0
-101 -26 -175 -123 -350 -138 -247 -197 -327 -398 -541 -261 -277 -301 -374
-344 -828 -8 -88 -19 -209 -25 -270 -27 -289 -63 -339 -225 -316 -44 6 -104
11 -132 11 -45 0 -53 -3 -53 -19 0 -16 11 -19 73 -26 107 -10 245 -40 397 -87
206 -62 232 -69 267 -62 54 10 46 21 -20 28 -36 3 -85 17 -117 34 -102 50
-140 144 -140 342 0 126 32 421 55 512 36 142 118 243 222 274 66 20 67 20
837 10 498 -7 498 -7 571 -219 89 -262 123 -342 228 -555 104 -208 133 -280
120 -293 -7 -7 -26 -5 -59 4 -138 42 -244 64 -244 50 0 -42 291 -174 637 -289
228 -76 282 -86 331 -60 38 20 65 53 58 71 -3 8 -52 45 -108 81 -182 117 -210
138 -275 202 -111 111 -145 170 -281 492 -70 165 -114 289 -349 985 -139 414
-249 698 -329 855 -29 58 -103 186 -164 285 -129 210 -169 304 -178 419 -7 81
-7 81 -132 143 -134 66 -305 137 -357 148 -25 5 -36 2 -54 -16z m82 -206 c13
-21 87 -135 165 -253 320 -485 479 -793 604 -1170 110 -329 192 -566 201 -574
5 -6 9 -14 9 -18 0 -4 -240 -8 -532 -8 -293 0 -587 -5 -653 -10 -126 -10 -245
-4 -245 12 0 17 122 167 221 273 204 218 289 329 405 524 80 135 99 183 116
304 24 167 -18 313 -197 672 -110 220 -137 285 -121 285 2 0 15 -17 27 -37z"/>
<path d="M4630 7441 c-89 -27 -115 -66 -108 -160 5 -71 49 -166 210 -455 135
-241 199 -383 233 -511 24 -93 25 -105 22 -383 -2 -265 0 -295 20 -388 61
-272 123 -398 353 -714 38 -52 107 -162 152 -244 96 -174 162 -252 239 -286
108 -46 191 -39 464 41 94 27 195 52 226 56 119 12 300 -68 539 -239 188 -134
236 -162 319 -188 71 -22 161 -26 179 -8 15 15 16 98 1 169 -11 53 -13 374 -4
539 3 47 7 130 11 185 10 194 48 399 99 545 65 184 56 567 -21 875 -80 319
-181 502 -399 720 -261 261 -547 381 -827 347 -196 -24 -356 -101 -501 -242
-54 -52 -106 -98 -115 -102 -9 -4 -42 -7 -73 -7 -71 -1 -134 35 -259 151 -49
46 -117 99 -150 119 -66 41 -315 148 -399 173 -56 17 -167 20 -211 7z m313
-147 c89 -20 238 -88 326 -151 36 -26 113 -92 171 -148 93 -91 111 -103 159
-115 64 -15 162 -8 196 14 14 9 63 67 109 129 96 130 112 145 222 198 272 132
532 73 780 -175 198 -199 343 -475 403 -768 37 -176 44 -296 35 -543 -15 -406
-10 -762 15 -1050 41 -467 13 -573 -145 -551 -54 7 -99 29 -206 103 -96 65
-334 185 -427 213 -91 29 -133 25 -345 -26 -174 -42 -199 -46 -286 -42 -104 5
-153 23 -201 75 -37 39 -57 83 -123 263 -32 85 -93 223 -136 307 -132 253
-190 461 -210 744 -11 168 -19 216 -55 362 -43 177 -84 262 -259 542 -129 207
-208 372 -242 502 -14 57 -24 110 -20 118 8 21 144 20 239 -1z"/>
<path d="M2677 7239 c-129 -22 -535 -123 -702 -174 -604 -184 -887 -411 -1034
-828 -68 -195 -99 -456 -81 -694 20 -269 41 -321 148 -371 51 -24 72 -27 204
-32 145 -5 147 -5 176 -33 44 -42 76 -122 127 -317 52 -196 81 -265 139 -328
73 -80 168 -112 330 -112 183 0 350 63 536 203 80 60 230 195 230 208 0 5 -48
-23 -107 -62 -231 -152 -439 -226 -689 -245 -173 -13 -253 25 -316 150 -34 68
-32 62 -89 266 -73 264 -149 384 -315 496 -137 92 -155 132 -155 350 0 278 73
499 231 699 81 101 168 163 415 296 557 298 857 430 1048 460 207 32 415 -34
475 -151 20 -39 22 -59 22 -180 0 -74 4 -150 10 -169 8 -29 78 -154 143 -256
19 -30 19 -30 12 40 -23 252 -32 311 -54 347 -15 25 -26 66 -33 130 -21 179
-37 208 -151 262 -140 67 -313 82 -520 45z"/>
<path d="M7752 7241 c-34 -10 -71 -26 -82 -36 -27 -25 -25 -72 5 -141 47 -106
55 -152 61 -329 11 -368 37 -565 95 -716 57 -149 156 -270 281 -345 35 -21 96
-60 136 -87 40 -26 139 -85 220 -129 582 -318 702 -390 799 -481 137 -130 177
-241 155 -428 -24 -203 -88 -388 -203 -590 -105 -184 -298 -448 -354 -485 -59
-39 -135 37 -250 252 -170 317 -289 458 -461 544 -223 111 -378 250 -455 405
-29 58 -45 82 -48 70 -7 -37 21 -131 66 -224 37 -75 62 -110 127 -176 88 -89
161 -136 316 -204 177 -77 235 -142 400 -445 100 -186 151 -265 203 -315 32
-30 40 -33 76 -28 79 10 107 43 351 422 143 221 227 335 341 460 95 105 149
206 174 327 48 243 -26 450 -222 612 -82 68 -341 215 -683 387 -305 154 -400
213 -528 334 -337 317 -475 730 -368 1100 39 133 146 202 221 143 17 -13 52
-73 91 -154 93 -192 173 -272 313 -310 61 -17 69 -17 188 0 69 10 204 36 301
57 245 55 339 66 448 51 131 -17 229 -68 376 -195 38 -32 72 -57 74 -54 3 3
-33 75 -81 161 -71 127 -92 157 -113 163 -15 4 -94 7 -177 6 -181 -1 -290 -19
-640 -105 -247 -60 -251 -61 -318 -49 -125 21 -173 60 -232 187 -89 191 -190
296 -333 345 -70 24 -185 24 -270 0z"/>
</g>
</svg>
